<svg xmlns="http://www.w3.org/2000/svg" viewBox="0 0 100 100">
  <defs>
    <linearGradient id="sy_grad" x1="0%" y1="0%" x2="100%" y2="100%">
      <stop offset="0%" stop-color="#059669" />
      <stop offset="100%" stop-color="#10b981" />
    </linearGradient>
    <linearGradient id="bg_grad" x1="0%" y1="0%" x2="0%" y2="100%">
      <stop offset="0%" stop-color="#1e293b" />
      <stop offset="100%" stop-color="#0f172a" />
    </linearGradient>
  </defs>
  
  <!-- Premium Dark Rounded Background -->
  <rect x="0" y="0" width="100" height="100" rx="30" fill="url(#bg_grad)" />
  
  <!-- Glowing Emerald Shield Contour -->
  <path d="M 50 15 
           L 80 25 
           V 55 
           C 80 75 60 85 50 90 
           C 40 85 20 75 20 55 
           V 25 
           Z" 
        fill="none" 
        stroke="url(#sy_grad)" 
        stroke-width="7" 
        stroke-linejoin="round" />
        
  <!-- Core Structural 'S' -->
  <path d="M 62 35 
           H 45 
           A 7 7 0 0 0 38 42
           V 47
           A 7 7 0 0 0 45 54
           H 55
           A 7 7 0 0 1 62 61
           V 66
           A 7 7 0 0 1 55 73
           H 38" 
        fill="none" 
        stroke="#ffffff" 
        stroke-width="8" 
        stroke-linecap="round" 
        stroke-linejoin="round" />
</svg>